<svg xmlns="http://www.w3.org/2000/svg" width="137.002" height="100.609" viewBox="0 0 137.002 100.609">
  <g id="_2be55c3003812582c988d404ee398a3f" data-name="2be55c3003812582c988d404ee398a3f" transform="translate(0.002 -8.499)">
    <path id="Tracé_10" data-name="Tracé 10" d="M54.963,52.42V43.855c0-4.964-11.467-5.351-14.984-5.351S25,38.891,25,43.855V52.42c0,4.964,11.467,5.351,14.984,5.351S54.963,57.383,54.963,52.42Zm-25.686-.565V47.88a39.06,39.06,0,0,0,10.7,1.327,39.06,39.06,0,0,0,10.7-1.327v3.975c-1.079.649-4.808,1.635-10.7,1.635S30.356,52.5,29.277,51.854Zm10.7-9.069a34.27,34.27,0,0,1,9.3,1.07,34.271,34.271,0,0,1-9.3,1.07,34.271,34.271,0,0,1-9.3-1.07A34.283,34.283,0,0,1,39.98,42.785Z" transform="translate(28.511 34.221)" fill="#715afe"/>
    <path id="Tracé_11" data-name="Tracé 11" d="M74.65,59.6a27.816,27.816,0,0,0-22.032-27.2l-4.281-4.279a2.2,2.2,0,0,0-3.027,0l-4.279,4.279A27.821,27.821,0,1,0,74.65,59.6Zm-51.373,0A23.529,23.529,0,0,1,42.48,36.47,2.145,2.145,0,0,0,43.6,35.88l3.224-3.226,3.228,3.226a2.137,2.137,0,0,0,1.119.591A23.539,23.539,0,1,1,23.277,59.6Z" transform="translate(21.668 21.684)" fill="#715afe"/>
    <path id="Tracé_12" data-name="Tracé 12" d="M122.016,17.061h2.537a6.422,6.422,0,1,0,0-4.281h-4.677a2.139,2.139,0,0,0-2.141,2.141v6.424H115.2a6.383,6.383,0,0,0-12.055,0H98.471l-.009,0-.009,0a2.139,2.139,0,0,0-2.141,2.141V38.464h-2.53a6.383,6.383,0,0,0-12.049.013H79.2V36.328a2.139,2.139,0,0,0-2.141-2.141H70.635V31.829A10.718,10.718,0,0,0,79,23.239a8.558,8.558,0,0,0,6.614-8.318V12.778a2.139,2.139,0,0,0-2.141-2.141H53.511a2.139,2.139,0,0,0-2.141,2.141v2.145a8.558,8.558,0,0,0,6.614,8.318,10.721,10.721,0,0,0,8.369,8.59v2.357H59.933a2.139,2.139,0,0,0-2.141,2.141v2.149H55.256a6.381,6.381,0,0,0-12.047-.013H40.685V23.485a2.139,2.139,0,0,0-2.141-2.141l-.009,0-.009,0H33.853a6.383,6.383,0,0,0-12.055,0H19.263V14.921a2.139,2.139,0,0,0-2.141-2.141H12.445a6.422,6.422,0,1,0,0,4.281h2.537V29.9H12.445a6.422,6.422,0,1,0,0,4.281h4.677a2.139,2.139,0,0,0,2.141-2.141V25.625H21.8a6.382,6.382,0,0,0,12.051,0H36.4V55.591H33.85a6.381,6.381,0,0,0-12.058.019h-2.53V49.169a2.139,2.139,0,0,0-2.141-2.141H12.445a6.422,6.422,0,1,0,0,4.281h2.537V64.153H12.445a6.422,6.422,0,1,0,0,4.281h4.677a2.139,2.139,0,0,0,2.141-2.141v-6.4h2.543a6.383,6.383,0,0,0,12.047-.019h4.6c.034,0,.06.019.094.019a2.139,2.139,0,0,0,2.141-2.141V42.745H43.2a6.381,6.381,0,0,0,12.055.013h2.537v2.13a2.139,2.139,0,0,0,2.141,2.141H77.057A2.139,2.139,0,0,0,79.2,44.888v-2.13h2.537a6.381,6.381,0,0,0,12.055-.013h2.524V57.75a2.139,2.139,0,0,0,2.141,2.141c.034,0,.06-.017.094-.019h4.6a6.383,6.383,0,0,0,12.047.019h2.543v6.4a2.139,2.139,0,0,0,2.141,2.141h4.677a6.422,6.422,0,1,0,0-4.281h-2.537V51.309h2.537a6.422,6.422,0,1,0,0-4.281h-4.677a2.139,2.139,0,0,0-2.141,2.141V55.61h-2.53a6.381,6.381,0,0,0-12.058-.019H100.6V25.625h2.552a6.382,6.382,0,0,0,12.051,0h2.537v6.419a2.139,2.139,0,0,0,2.141,2.141h4.677a6.422,6.422,0,1,0,0-4.281h-2.537ZM79.2,18.609V14.921h2.141v0A4.27,4.27,0,0,1,79.2,18.609ZM55.652,14.923h0l2.141,0v3.688A4.27,4.27,0,0,1,55.652,14.923Zm6.422,6.419V14.921H74.916v6.422a6.422,6.422,0,1,1-12.843,0ZM6.42,17.061A2.141,2.141,0,1,1,8.56,14.921,2.141,2.141,0,0,1,6.42,17.061Zm0,17.124A2.141,2.141,0,1,1,8.56,32.045,2.141,2.141,0,0,1,6.42,34.185Zm0,17.124A2.141,2.141,0,1,1,8.56,49.169,2.141,2.141,0,0,1,6.42,51.309Zm0,17.124A2.141,2.141,0,1,1,8.56,66.293,2.141,2.141,0,0,1,6.42,68.434Zm21.405-42.81a2.141,2.141,0,1,1,2.141-2.141A2.141,2.141,0,0,1,27.825,25.623Zm0,34.248a2.141,2.141,0,1,1,2.141-2.141A2.141,2.141,0,0,1,27.825,59.872ZM49.23,42.758a2.138,2.138,0,0,1-2.134-2.1.481.481,0,0,0,.011-.047c0-.013-.006-.024-.006-.036a2.135,2.135,0,1,1,2.13,2.188Zm25.686-.011H62.073V38.468H74.916Zm12.843.011a2.141,2.141,0,1,1,2.134-2.168c0,.006,0,.011,0,.015s.006.017.006.028A2.139,2.139,0,0,1,87.759,42.758Zm42.819,21.395a2.141,2.141,0,1,1-2.141,2.141A2.141,2.141,0,0,1,130.578,64.153Zm0-17.124a2.141,2.141,0,1,1-2.141,2.141A2.141,2.141,0,0,1,130.578,47.028Zm-21.405,8.562a2.141,2.141,0,1,1-2.141,2.141A2.141,2.141,0,0,1,109.173,55.591Zm0-29.967a2.141,2.141,0,1,1,2.141-2.141A2.141,2.141,0,0,1,109.173,25.623ZM130.578,12.78a2.141,2.141,0,1,1-2.141,2.141A2.141,2.141,0,0,1,130.578,12.78Zm0,17.124a2.141,2.141,0,1,1-2.141,2.141A2.141,2.141,0,0,1,130.578,29.9Z" transform="translate(0)" fill="#715afe"/>
  </g>
</svg>